Coordinates
version=1
nRows=12
nColumns=19
inDegrees=yes

Units are S.I. units (second, meters, Newtons, ...)
If the header above contains a line with 'inDegrees', this indicates whether rotational values are in degrees (yes) or radians (no).

endheader
time	pelvis_tilt	pelvis_list	pelvis_rotation	pelvis_tx	pelvis_ty	pelvis_tz	hip_flexion_r	hip_adduction_r	hip_rotation_r	knee_angle_r	knee_angle_r_beta	ankle_angle_r	hip_flexion_l	hip_adduction_l	hip_rotation_l	knee_angle_l	knee_angle_l_beta	ankle_angle_l
     16.62000000	     -4.09147605	     10.98405664	      5.94399347	      2.41437005	      1.02788484	      1.00336226	    -18.04601993	    -10.59725311	    -12.04520890	     67.46176794	      1.17742997	    -22.37234374	     29.15578279	     15.06492905	    -18.62148958	     16.17986876	      0.28239198	     -3.52656623
     16.62666667	     -3.87330697	     11.99724978	      6.59209576	      2.41333687	      1.02365630	      1.00294588	    -17.05951003	    -12.19637040	    -12.93575699	     71.78344850	      1.25285752	    -22.06332400	     28.93128725	     16.03445801	    -19.69566423	     18.64340406	      0.32538878	     -2.74700927
     16.63333333	     -3.24105308	     12.88942729	      7.28233503	      2.41182680	      1.01958788	      1.00289280	    -16.45918273	    -13.49291223	    -13.65655341	     75.93814633	      1.32537068	    -21.44749476	     28.28278058	     16.80938519	    -20.36361830	     21.55265992	      0.37616488	     -1.49285064
     16.64000000	     -2.74910757	     13.82527501	      7.86649639	      2.41034047	      1.01514167	      1.00324367	    -15.61063601	    -14.87535027	    -14.09073052	     80.04028844	      1.39696657	    -20.57315546	     27.70783893	     17.55719628	    -20.84453609	     24.59329449	      0.42923396	      0.07903373
     16.64666667	     -2.39314608	     14.71643853	      8.34923355	      2.40875313	      1.01045623	      1.00395595	    -14.45676202	    -16.23095018	    -14.18023701	     84.07317566	      1.46735373	    -19.49341992	     27.19171674	     18.23926167	    -21.06615774	     27.64973029	      0.48257883	      1.95095177
     16.65333333	     -2.99480891	     15.25933723	      8.58259529	      2.40727119	      1.00487302	      1.00498296	    -11.81968671	    -17.39887845	    -13.36660238	     88.19109580	      1.53922499	    -18.27114124	     27.70169806	     18.53514899	    -21.32089981	     30.70514447	      0.53590587	      4.03670049
     16.66000000	     -2.30065328	     15.95373552	      8.91048561	      2.40525446	      1.00078258	      1.00616528	    -10.70096758	    -18.41839768	    -12.96436076	     91.84970551	      1.60307978	    -17.08506945	     26.60433323	     19.09845453	    -20.74719920	     33.54994629	      0.58555703	      6.56829580
     16.66666667	     -2.89907189	     15.98878773	      8.91206021	      2.40307948	      0.99569461	      1.00756507	     -7.47802091	    -18.94438919	    -11.41151549	     95.63880420	      1.66921203	    -15.82336793	     26.98000418	     18.93181891	    -20.47217811	     36.36397158	      0.63467103	      9.02995517
     16.67333333	     -2.83676094	     16.07414494	      8.92985648	      2.40068750	      0.99172682	      1.00891499	     -4.95588720	    -19.37066305	    -10.03339615	     99.04455755	      1.72865364	    -14.69712539	     26.40787871	     18.91118040	    -19.74548816	     38.82136627	      0.67756066	     11.66627805
     16.68000000	     -2.83455347	     16.02585899	      8.85058101	      2.39816739	      0.98821436	      1.01025594	     -2.14424157	    -19.62795223	     -8.42795394	    102.20687516	      1.78384649	    -13.66359116	     25.73164458	     18.77443431	    -18.95826001	     40.93896169	      0.71451967	     14.23714407
     16.68666667	     -2.86065536	     15.83169466	      8.69144296	      2.39559609	      0.98525402	      1.01151117	      0.88952398	    -19.69350127	     -6.67733095	    105.08068297	      1.83400390	    -12.72626426	     24.89004594	     18.51249128	    -18.10815272	     42.67729400	      0.74485930	     16.69907348
     16.69333333	     -2.75223290	     15.50581175	      8.39213148	      2.39302619	      0.98307725	      1.01272348	      3.93520268	    -19.53734512	     -4.81592115	    107.60601187	      1.87807920	    -11.87655665	     23.69312758	     18.08681100	    -17.27952495	     44.00045964	      0.76795289	     19.01899177
